<svg xmlns="http://www.w3.org/2000/svg" viewBox="0 0 128 128" fill="none">
  <!-- Background circle -->
  <circle cx="64" cy="64" r="60" fill="#6366f1"/>

  <!-- Cat ears -->
  <path d="M28 32 L40 64 L52 48 Z" fill="#4f46e5"/>
  <path d="M100 32 L88 64 L76 48 Z" fill="#4f46e5"/>

  <!-- Inner ears -->
  <path d="M32 38 L40 58 L48 48 Z" fill="#818cf8"/>
  <path d="M96 38 L88 58 L80 48 Z" fill="#818cf8"/>

  <!-- Cat face -->
  <ellipse cx="64" cy="72" rx="40" ry="36" fill="#818cf8"/>

  <!-- Eyes -->
  <ellipse cx="48" cy="64" rx="8" ry="12" fill="#1e1b4b"/>
  <ellipse cx="80" cy="64" rx="8" ry="12" fill="#1e1b4b"/>

  <!-- Eye highlights -->
  <circle cx="51" cy="60" r="3" fill="white"/>
  <circle cx="83" cy="60" r="3" fill="white"/>

  <!-- Nose -->
  <path d="M64 76 L60 82 L68 82 Z" fill="#1e1b4b"/>

  <!-- Mouth -->
  <path d="M52 88 Q64 96 76 88" stroke="#1e1b4b" stroke-width="2.5" fill="none" stroke-linecap="round"/>

  <!-- Whiskers left -->
  <line x1="16" y1="68" x2="38" y2="72" stroke="#1e1b4b" stroke-width="2" stroke-linecap="round"/>
  <line x1="16" y1="80" x2="38" y2="80" stroke="#1e1b4b" stroke-width="2" stroke-linecap="round"/>
  <line x1="16" y1="92" x2="38" y2="88" stroke="#1e1b4b" stroke-width="2" stroke-linecap="round"/>

  <!-- Whiskers right -->
  <line x1="112" y1="68" x2="90" y2="72" stroke="#1e1b4b" stroke-width="2" stroke-linecap="round"/>
  <line x1="112" y1="80" x2="90" y2="80" stroke="#1e1b4b" stroke-width="2" stroke-linecap="round"/>
  <line x1="112" y1="92" x2="90" y2="88" stroke="#1e1b4b" stroke-width="2" stroke-linecap="round"/>
</svg>
